<?xml version="1.0" encoding="utf-8"?>
<!-- Generator: Adobe Illustrator 25.4.1, SVG Export Plug-In . SVG Version: 6.00 Build 0)  -->
<svg version="1.1" id="Layer_1" xmlns="http://www.w3.org/2000/svg" xmlns:xlink="http://www.w3.org/1999/xlink" x="0px" y="0px"
	 viewBox="0 0 20 16" style="enable-background:new 0 0 20 16;" xml:space="preserve">
<style type="text/css">
	.st0{fill:#514F5F;}
</style>
<path d="M15.1,2.5l2.7-2.4C17.9,0.1,18.1,0,18.2,0C18.7,0,19,0.3,19,0.8c0,0.2-0.1,0.4-0.3,0.6L2.2,15.8
	C2.1,15.9,1.9,16,1.8,16C1.3,16,1,15.7,1,15.2c0-0.2,0.1-0.4,0.3-0.6l2.4-2.1c-1.4-1.1-2.6-2.6-3.5-4C0,8.4,0,8.2,0,8s0-0.4,0.1-0.5
	C2.3,4.1,5.9,1,10,1C11.8,1,13.5,1.6,15.1,2.5z M17.4,4.4c1,0.9,1.8,2,2.5,3.1C20,7.6,20,7.8,20,8s0,0.4-0.1,0.5
	C17.8,11.9,14.1,15,10,15c-1.3,0-2.6-0.3-3.7-0.8l1.2-1.1c0.8,0.3,1.6,0.4,2.5,0.4c3.5,0,6.6-2.6,8.4-5.5c-0.6-0.9-1.3-1.8-2.1-2.6
	L17.4,4.4z M14,7.4c0,0.2,0,0.4,0,0.6c0,2.2-1.8,4-4,4c-0.4,0-0.8-0.1-1.1-0.2l1.6-1.4c0.9-0.2,1.6-0.8,1.9-1.7L14,7.4z M13.9,3.6
	c-1.2-0.7-2.5-1.1-3.9-1.1C6.5,2.5,3.5,5.1,1.6,8c0.9,1.3,2,2.6,3.2,3.5L6.6,10C6.2,9.4,6,8.7,6,8c0-2.2,1.8-4,4-4
	c0.9,0,1.8,0.3,2.5,0.8L13.9,3.6z M11.3,5.9c-0.4-0.2-0.8-0.4-1.3-0.4C8.6,5.5,7.5,6.6,7.5,8c0,0.4,0.1,0.7,0.2,1L11.3,5.9z"/>
</svg>
