<?xml version="1.0" encoding="utf-8"?>
<!-- Generator: Adobe Illustrator 25.4.1, SVG Export Plug-In . SVG Version: 6.00 Build 0)  -->
<svg version="1.1" id="Layer_1" xmlns="http://www.w3.org/2000/svg" xmlns:xlink="http://www.w3.org/1999/xlink" x="0px" y="0px"
	 viewBox="0 0 20 16" style="enable-background:new 0 0 20 16;" xml:space="preserve">
<style type="text/css">
	.st0{fill:#514F5F;}
</style>
<path d="M10,1.1c-4.1,0-7.8,2.6-9.9,6.4C0,7.8,0,8.2,0.1,8.5c2.1,3.9,5.7,6.4,9.8,6.4c4.1,0,7.8-2.6,9.9-6.4
	c0.2-0.3,0.2-0.7,0-1C17.8,3.7,14.1,1.1,10,1.1z M18.4,8c-2,3.3-5,5.4-8.4,5.4S3.5,11.3,1.6,8h0c2-3.3,5-5.4,8.4-5.4
	S16.4,4.7,18.4,8L18.4,8z"/>
<path d="M10,4C7.8,4,6,5.8,6,8s1.8,4,4,4s4-1.8,4-4S12.2,4,10,4z M10,10.5c-1.4,0-2.5-1.1-2.5-2.5
	c0-1.4,1.1-2.5,2.5-2.5s2.5,1.1,2.5,2.5C12.5,9.4,11.4,10.5,10,10.5z"/>
</svg>
