<?xml version="1.0" encoding="utf-8"?>
<!-- Generator: Adobe Illustrator 24.0.1, SVG Export Plug-In . SVG Version: 6.00 Build 0)  -->
<svg version="1.1" id="Layer_1" xmlns="http://www.w3.org/2000/svg" xmlns:xlink="http://www.w3.org/1999/xlink" x="0px" y="0px"
	 viewBox="0 0 50 50" style="enable-background:new 0 0 50 50;" xml:space="preserve">
<g>
	<path d="M40.2,9.8H17.4c-2.5,0-4.5,2-4.5,4.5v13.6c0,2.3,1.8,4.2,4,4.5v4.3l5.2-4.3h18.1c2.5,0,4.5-2,4.5-4.5V14.2
		C44.6,11.7,42.7,9.8,40.2,9.8z M39.5,20.9l-6.7,5.9c-0.3,0.2-0.7,0.1-0.7-0.3v-2.6H20c-0.3,0-0.6-0.2-0.6-0.6v-5.4
		c0-0.3,0.2-0.6,0.6-0.6l12.1-0.1v-2.6c0-0.4,0.4-0.6,0.7-0.4l6.7,5.9C39.6,20.3,39.6,20.7,39.5,20.9z"/>
	<path d="M30.9,41.6H8.5V3.5h22.4v4h3.3v-4c0-2-1.6-3.5-3.5-3.5H8.8c-2,0-3.5,1.6-3.5,3.5v43c0,2,1.6,3.5,3.5,3.5h21.9
		c2,0,3.5-1.6,3.5-3.5V34.7h-3.3V41.6z M19.8,47.7c-1,0-2-0.8-2-1.9c0-1,0.9-1.9,2-1.9s1.9,0.9,1.9,1.9
		C21.7,46.9,20.8,47.7,19.8,47.7z"/>
</g>
</svg>
