<?xml version="1.0" encoding="utf-8"?>
<!-- Generator: Adobe Illustrator 24.0.1, SVG Export Plug-In . SVG Version: 6.00 Build 0)  -->
<svg version="1.1" id="Layer_1" xmlns="http://www.w3.org/2000/svg" xmlns:xlink="http://www.w3.org/1999/xlink" x="0px" y="0px"
	 viewBox="0 0 50 50" style="enable-background:new 0 0 50 50;" xml:space="preserve">
<g>
	<path d="M31.1,41.6H8.7V3.5h22.4v4h3.4v-4c0-2-1.6-3.5-3.5-3.5H9C7,0,5.4,1.6,5.4,3.5v43C5.4,48.5,7,50,9,50h21.9
		c2,0,3.5-1.6,3.5-3.5V34.7h-3.3V41.6z M19.9,47.7c-1.1,0-1.9-0.9-1.9-1.9c0-1,0.9-1.9,1.9-1.9c1.1,0,1.9,0.9,1.9,1.9
		C21.8,46.8,20.9,47.7,19.9,47.7z"/>
	<path d="M40.1,9.8H17.3c-2.5,0-4.5,2-4.5,4.5v13.6c0,2.5,2,4.5,4.5,4.5h18.6l5.2,4.3v-4.3c2-0.4,3.5-2.2,3.5-4.4V14.2
		C44.6,11.7,42.6,9.8,40.1,9.8z M38.3,23.3c0,0.3-0.2,0.6-0.6,0.6l-12.1-0.1v2.6c0,0.4-0.4,0.6-0.7,0.3l-6.7-5.9
		c-0.2-0.1-0.2-0.5,0-0.7l6.7-5.9c0.3-0.2,0.7-0.1,0.7,0.4v2.6h12.2c0.3,0,0.6,0.2,0.6,0.6L38.3,23.3z"/>
</g>
</svg>
